<svg width="48" height="48" viewBox="0 0 48 48" fill="none" xmlns="http://www.w3.org/2000/svg">
<g clip-path="url(#clip0_1704_5658)">
<path d="M48 40.0147C48 44.4363 44.4237 48.022 40.0072 48.022H7.99282C3.5763 48.022 0 44.4363 0 40.0147V8.00733C0 3.5857 3.5763 0 7.99282 0H39.9856C44.4021 0 47.9785 3.5857 47.9785 8.00733V40.0147H48Z" fill="#65BC4B"/>
<path d="M34.5781 8.44727H13.4004C11.6553 8.44727 10.2334 9.87715 10.2334 11.615V34.2511C10.2334 35.901 11.5045 37.2429 13.0987 37.4189C13.0987 37.4628 13.0987 37.5068 13.0987 37.5508C13.0987 38.6727 14.0036 39.5527 15.1239 39.5527C16.2442 39.5527 17.149 38.6507 17.149 37.5508C17.149 37.5068 17.149 37.4848 17.149 37.4409H30.8941C30.8941 37.4409 30.8941 37.5068 30.8941 37.5508C30.8941 38.6727 31.7989 39.5527 32.9192 39.5527C34.0395 39.5527 34.9443 38.6507 34.9443 37.5508C34.9443 37.5068 34.9443 37.4628 34.9443 37.4189C36.5386 37.2649 37.8097 35.901 37.8097 34.2511V11.615C37.8097 9.87715 36.3878 8.44727 34.6427 8.44727M15.3393 10.6691H33.1347C33.6948 10.6691 34.1688 11.131 34.1688 11.703C34.1688 12.2749 33.7163 12.7369 33.1347 12.7369H15.2962C14.7145 12.7369 14.2621 12.2749 14.2621 11.703C14.2621 11.131 14.7145 10.6691 15.2962 10.6691M14.6068 34.6691C13.7666 34.6691 13.0987 33.9871 13.0987 33.1732C13.0987 32.3593 13.7666 31.6553 14.6068 31.6553C15.447 31.6553 16.1149 32.3373 16.1149 33.1732C16.1149 34.0091 15.447 34.6691 14.6068 34.6691ZM23.4399 28.7736H15.1239C14.0251 28.7736 13.1203 27.8716 13.1203 26.7717V16.0586C13.1203 14.9587 14.0251 14.0348 15.1239 14.0348H23.4399V28.7736ZM33.4147 34.6691C32.5745 34.6691 31.9066 33.9871 31.9066 33.1732C31.9066 32.3593 32.5745 31.6553 33.4147 31.6553C34.2549 31.6553 34.9228 32.3373 34.9228 33.1732C34.9228 34.0091 34.2549 34.6691 33.4147 34.6691ZM34.9228 26.7497C34.9228 27.8496 34.018 28.7516 32.9192 28.7516H24.5817V14.0128H32.9192C34.018 14.0128 34.9228 14.9147 34.9228 16.0366V26.7497Z" fill="white"/>
</g>
<defs>
<clipPath id="clip0_1704_5658">
<rect width="48" height="48" fill="white"/>
</clipPath>
</defs>
</svg>
