<svg width="48" height="48" viewBox="0 0 48 48" fill="none" xmlns="http://www.w3.org/2000/svg">
<g clip-path="url(#clip0_1704_5650)">
<path d="M48 40.0113C48 44.4344 44.4199 48 40 48H8C3.58011 48 0 44.4118 0 40.0113V8.01128C0 3.58815 3.58011 0 8 0H40C44.4199 0 48 3.58815 48 8.01128V40.0113Z" fill="#65BC4B"/>
<path d="M37.7016 22.409C37.7016 22.409 37.6795 22.2736 37.6353 22.2059L33.0607 7.58248C32.7734 6.65724 31.801 6.16076 30.895 6.45413C29.9889 6.7475 29.4806 7.71788 29.7679 8.62056L30.3204 10.4034H17.6574L18.2099 8.62056C18.4972 7.71788 17.9889 6.7475 17.0828 6.45413C16.1767 6.16076 15.2044 6.6798 14.9171 7.58248L10.3425 22.2059C10.3425 22.2059 10.2983 22.3413 10.2983 22.409C10.2541 22.6347 9.87839 24.7108 10.4972 26.945C11.3812 30.3074 14.3867 40.0113 14.5193 40.4175C14.8287 41.3427 15.7789 41.8392 16.685 41.5458C17.4143 41.3201 17.8784 40.6431 17.9005 39.921H30.1436C30.1436 40.6431 30.6077 41.3201 31.337 41.5458C32.243 41.8392 33.2154 41.3201 33.5027 40.4175C33.6353 40.0113 36.6408 30.3074 37.5469 26.945C38.1436 24.7108 37.7679 22.6347 37.7237 22.409M34.2099 26.0649C33.9668 26.9901 33.5469 28.4344 33.0828 30.0141H14.9392C14.4751 28.4118 14.0552 26.9901 13.8121 26.0649C13.4806 24.756 13.6353 23.4471 13.6795 23.1311L16.685 13.495H31.2928L34.3204 23.1086C34.3646 23.4245 34.5414 24.756 34.1878 26.0649" fill="white"/>
</g>
<defs>
<clipPath id="clip0_1704_5650">
<rect width="48" height="48" fill="white"/>
</clipPath>
</defs>
</svg>
