<svg width="48" height="48" viewBox="0 0 48 48" fill="none" xmlns="http://www.w3.org/2000/svg">
<g clip-path="url(#clip0_1704_5646)">
<path d="M48 39.984C48 44.4108 44.4123 47.9761 40.0039 47.9761H7.99609C3.58769 47.9761 0 44.3868 0 39.984V7.99202C0 3.58923 3.58769 0 7.99609 0H40.0039C44.4358 0 48 3.58923 48 7.99202V39.984Z" fill="#65BC4B"/>
<path d="M35.9005 10.2891C35.7832 9.28414 34.9391 8.51843 33.9073 8.51843H14.0929C13.0846 8.51843 12.217 9.28414 12.0998 10.2891L9.75488 31.2742C9.75488 31.4417 9.75488 31.5852 9.75488 31.7527L10.5521 37.7587C10.6928 38.7398 11.537 39.5055 12.5219 39.5055H35.4549C36.4398 39.5055 37.3074 38.7637 37.4246 37.7587L38.2219 31.7527C38.2454 31.5852 38.2454 31.4417 38.2219 31.2742L35.877 10.2891H35.9005ZM13.5771 29.4317L15.3592 13.3998C15.4295 12.8494 15.8751 12.4666 16.4144 12.4666H31.5624C32.1017 12.4666 32.5707 12.8734 32.6176 13.3998L34.4232 29.4317C34.4466 29.7188 34.3528 30.0299 34.1652 30.2692C33.9542 30.5085 33.6728 30.6281 33.368 30.6281H14.6323C14.3274 30.6281 14.046 30.5085 13.835 30.2692C13.6474 30.0538 13.5302 29.7428 13.5771 29.4317ZM17.8448 34.7916H14.2805C13.6943 34.7916 13.2253 34.3131 13.2253 33.7148C13.2253 33.1166 13.6943 32.662 14.2805 32.662H17.8448C18.431 32.662 18.9 33.1406 18.9 33.7148C18.9 34.2891 18.431 34.7916 17.8448 34.7916ZM33.9307 34.7916H30.3665C29.7803 34.7916 29.2879 34.3131 29.2879 33.7148C29.2879 33.1166 29.7568 32.662 30.3665 32.662H33.9307C34.517 32.662 34.986 33.1406 34.986 33.7148C34.986 34.2891 34.517 34.7916 33.9307 34.7916Z" fill="white"/>
</g>
<defs>
<clipPath id="clip0_1704_5646">
<rect width="48" height="48" fill="white"/>
</clipPath>
</defs>
</svg>
