<svg width="49" height="48" viewBox="0 0 49 48" fill="none" xmlns="http://www.w3.org/2000/svg">
<g clip-path="url(#clip0_1704_5654)">
<path d="M48.5 39.9963C48.5 44.4038 44.9134 48 40.4893 48H8.48926C4.08658 48 0.5 44.4258 0.5 39.9963V8.00366C0.5 3.57424 4.08658 0 8.48926 0H40.4893C44.9134 0 48.5 3.57424 48.5 8.00366V39.9963Z" fill="#65BC4B"/>
<path d="M34.8625 12.8278C34.7551 11.9506 34.0249 11.2928 33.1229 11.2928H26.2075V5.63544H23.4155V11.2928H15.8343C14.9538 11.2928 14.2021 11.9506 14.0947 12.8278L12.0544 31.1594C12.0544 31.291 12.0544 31.4445 12.0544 31.576L12.7417 36.8168C12.8491 37.6939 13.5793 38.3298 14.4598 38.3298H34.4544C35.3135 38.3298 36.0652 37.6939 36.1726 36.8168L36.8598 31.576C36.8598 31.4445 36.8598 31.291 36.8598 31.1594L34.8195 12.8278H34.8625ZM16.9511 15.5468C16.994 15.0644 17.4021 14.7355 17.8746 14.7355H31.0826C31.5766 14.7355 31.9632 15.0863 32.0061 15.5468L33.5739 29.5587C33.6169 29.8218 33.531 30.085 33.3591 30.2823C33.1873 30.4797 32.9296 30.5893 32.6719 30.5893H16.3283C16.0705 30.5893 15.8128 30.4797 15.641 30.2823C15.4692 30.085 15.3833 29.8218 15.4048 29.5587L16.9726 15.5468H16.9511ZM19.0987 34.2293H15.9846C15.4692 34.2293 15.0612 33.8127 15.0612 33.3083C15.0612 32.804 15.4692 32.3874 15.9846 32.3874H19.0987C19.6142 32.3874 20.0222 32.804 20.0222 33.3083C20.0222 33.8127 19.6142 34.2293 19.0987 34.2293ZM33.1229 34.2293H30.0088C29.4934 34.2293 29.0853 33.8127 29.0853 33.3083C29.0853 32.804 29.5148 32.3874 30.0088 32.3874H33.1229C33.6383 32.3874 34.0464 32.804 34.0464 33.3083C34.0464 33.8127 33.6383 34.2293 33.1229 34.2293Z" fill="white"/>
</g>
<defs>
<clipPath id="clip0_1704_5654">
<rect width="48" height="48" fill="white" transform="translate(0.5)"/>
</clipPath>
</defs>
</svg>
